<?xml version="1.0" encoding="utf-8" standalone="no"?>
<!DOCTYPE svg PUBLIC "-//W3C//DTD SVG 1.1//EN"
  "http://www.w3.org/Graphics/SVG/1.1/DTD/svg11.dtd">
<svg xmlns:xlink="http://www.w3.org/1999/xlink" width="576pt" height="288pt" viewBox="0 0 576 288" xmlns="http://www.w3.org/2000/svg" version="1.1">
 <metadata>
  <rdf:RDF xmlns:dc="http://purl.org/dc/elements/1.1/" xmlns:cc="http://creativecommons.org/ns#" xmlns:rdf="http://www.w3.org/1999/02/22-rdf-syntax-ns#">
   <cc:Work>
    <dc:type rdf:resource="http://purl.org/dc/dcmitype/StillImage"/>
    <dc:date>2025-11-18T01:18:11.056722</dc:date>
    <dc:format>image/svg+xml</dc:format>
    <dc:creator>
     <cc:Agent>
      <dc:title>Matplotlib v3.10.7, https://matplotlib.org/</dc:title>
     </cc:Agent>
    </dc:creator>
   </cc:Work>
  </rdf:RDF>
 </metadata>
 <defs>
  <style type="text/css">*{stroke-linejoin: round; stroke-linecap: butt}</style>
 </defs>
 <g id="figure_1">
  <g id="patch_1">
   <path d="M 0 288 
L 576 288 
L 576 0 
L 0 0 
z
" style="fill: #ffffff"/>
  </g>
  <g id="axes_1">
   <g id="patch_2">
    <path d="M 50.24 219.430828 
L 565.2 219.430828 
L 565.2 10.8 
L 50.24 10.8 
z
" style="fill: #ffffff"/>
   </g>
   <g id="matplotlib.axis_1">
    <g id="xtick_1">
     <g id="line2d_1">
      <defs>
       <path id="m6edd98f64f" d="M 0 0 
L 0 3.5 
" style="stroke: #000000; stroke-width: 0.8"/>
      </defs>
      <g>
       <use xlink:href="#m6edd98f64f" x="73.647273" y="219.430828" style="stroke: #000000; stroke-width: 0.8"/>
      </g>
     </g>
     <g id="text_1">
      <!-- 2 -->
      <g transform="translate(67.892086 235.887276) rotate(-45) scale(0.1 -0.1)">
       <defs>
        <path id="Inter-Regular-32" d="M 481 0 
L 481 428 
L 2028 2106 
Q 2288 2388 2459 2600 
Q 2631 2813 2718 3005 
Q 2806 3197 2806 3413 
Q 2806 3778 2554 3990 
Q 2303 4203 1931 4203 
Q 1534 4203 1298 3965 
Q 1063 3728 1063 3334 
L 494 3334 
Q 494 3747 684 4059 
Q 875 4372 1203 4545 
Q 1531 4719 1947 4719 
Q 2363 4719 2683 4545 
Q 3003 4372 3186 4078 
Q 3369 3784 3369 3419 
Q 3369 3166 3278 2927 
Q 3188 2688 2959 2384 
Q 2731 2081 2319 1644 
L 1300 559 
L 1300 522 
L 3447 522 
L 3447 0 
L 481 0 
z
" transform="scale(0.015625)"/>
       </defs>
       <use xlink:href="#Inter-Regular-32"/>
      </g>
     </g>
    </g>
    <g id="xtick_2">
     <g id="line2d_2">
      <g>
       <use xlink:href="#m6edd98f64f" x="94.926612" y="219.430828" style="stroke: #000000; stroke-width: 0.8"/>
      </g>
     </g>
     <g id="text_2">
      <!-- 4 -->
      <g transform="translate(88.916204 236.142498) rotate(-45) scale(0.1 -0.1)">
       <defs>
        <path id="Inter-Regular-34" d="M 375 947 
L 375 1431 
L 2413 4656 
L 3134 4656 
L 3134 1469 
L 3766 1469 
L 3766 947 
L 3134 947 
L 3134 0 
L 2566 0 
L 2566 947 
L 375 947 
z
M 2569 1469 
L 2569 3913 
L 2531 3913 
L 1009 1506 
L 1009 1469 
L 2569 1469 
z
" transform="scale(0.015625)"/>
       </defs>
       <use xlink:href="#Inter-Regular-34"/>
      </g>
     </g>
    </g>
    <g id="xtick_3">
     <g id="line2d_3">
      <g>
       <use xlink:href="#m6edd98f64f" x="116.20595" y="219.430828" style="stroke: #000000; stroke-width: 0.8"/>
      </g>
     </g>
     <g id="text_3">
      <!-- 8 -->
      <g transform="translate(110.388892 235.949148) rotate(-45) scale(0.1 -0.1)">
       <defs>
        <path id="Inter-Regular-38" d="M 1978 -63 
Q 1506 -63 1145 104 
Q 784 272 582 565 
Q 381 859 381 1238 
Q 381 1531 500 1782 
Q 619 2034 825 2203 
Q 1031 2372 1291 2419 
L 1291 2444 
Q 950 2531 750 2822 
Q 550 3113 550 3481 
Q 550 3838 734 4117 
Q 919 4397 1241 4558 
Q 1563 4719 1978 4719 
Q 2388 4719 2709 4558 
Q 3031 4397 3217 4117 
Q 3403 3838 3403 3481 
Q 3403 3113 3201 2822 
Q 3000 2531 2669 2444 
L 2669 2419 
Q 2922 2372 3128 2203 
Q 3334 2034 3456 1782 
Q 3578 1531 3578 1238 
Q 3578 859 3373 565 
Q 3169 272 2808 104 
Q 2447 -63 1978 -63 
z
M 1978 453 
Q 2441 453 2712 676 
Q 2984 900 2984 1269 
Q 2984 1528 2853 1726 
Q 2722 1925 2494 2039 
Q 2266 2153 1978 2153 
Q 1538 2153 1252 1904 
Q 966 1656 966 1269 
Q 966 900 1236 676 
Q 1506 453 1978 453 
z
M 1978 2650 
Q 2347 2650 2587 2867 
Q 2828 3084 2828 3438 
Q 2828 3788 2593 3997 
Q 2359 4206 1978 4206 
Q 1591 4206 1358 3997 
Q 1125 3788 1125 3438 
Q 1125 3084 1362 2867 
Q 1600 2650 1978 2650 
z
" transform="scale(0.015625)"/>
       </defs>
       <use xlink:href="#Inter-Regular-38"/>
      </g>
     </g>
    </g>
    <g id="xtick_4">
     <g id="line2d_4">
      <g>
       <use xlink:href="#m6edd98f64f" x="137.485289" y="219.430828" style="stroke: #000000; stroke-width: 0.8"/>
      </g>
     </g>
     <g id="text_4">
      <!-- 16 -->
      <g transform="translate(128.781247 238.836133) rotate(-45) scale(0.1 -0.1)">
       <defs>
        <path id="Inter-Regular-31" d="M 2041 4656 
L 2041 0 
L 1456 0 
L 1456 4106 
L 1425 4106 
L 300 3272 
L 300 3909 
L 1313 4656 
L 2041 4656 
z
" transform="scale(0.015625)"/>
        <path id="Inter-Regular-36" d="M 2019 -63 
Q 1728 -63 1437 43 
Q 1147 150 908 400 
Q 669 650 525 1078 
Q 381 1506 381 2150 
Q 381 3378 840 4048 
Q 1300 4719 2091 4719 
Q 2481 4719 2790 4562 
Q 3100 4406 3297 4128 
Q 3494 3850 3550 3484 
L 2969 3484 
Q 2891 3788 2672 3991 
Q 2453 4194 2091 4194 
Q 1553 4194 1248 3730 
Q 944 3266 944 2425 
L 981 2425 
Q 1169 2716 1467 2880 
Q 1766 3044 2128 3044 
Q 2528 3044 2859 2847 
Q 3191 2650 3389 2301 
Q 3588 1953 3588 1503 
Q 3588 1069 3394 714 
Q 3200 359 2847 148 
Q 2494 -63 2019 -63 
z
M 2019 459 
Q 2300 459 2525 600 
Q 2750 741 2881 977 
Q 3013 1213 3013 1503 
Q 3013 1788 2886 2020 
Q 2759 2253 2537 2390 
Q 2316 2528 2034 2528 
Q 1753 2528 1525 2384 
Q 1297 2241 1162 2005 
Q 1028 1769 1028 1497 
Q 1028 1222 1156 986 
Q 1284 750 1509 604 
Q 1734 459 2019 459 
z
" transform="scale(0.015625)"/>
       </defs>
       <use xlink:href="#Inter-Regular-31"/>
       <use xlink:href="#Inter-Regular-36" transform="translate(40.673828 0)"/>
      </g>
     </g>
    </g>
    <g id="xtick_5">
     <g id="line2d_5">
      <g>
       <use xlink:href="#m6edd98f64f" x="158.764628" y="219.430828" style="stroke: #000000; stroke-width: 0.8"/>
      </g>
     </g>
     <g id="text_5">
      <!-- 32 -->
      <g transform="translate(148.641953 240.254766) rotate(-45) scale(0.1 -0.1)">
       <defs>
        <path id="Inter-Regular-33" d="M 1984 -63 
Q 1528 -63 1175 93 
Q 822 250 614 528 
Q 406 806 391 1175 
L 991 1175 
Q 1016 844 1297 651 
Q 1578 459 1975 459 
Q 2413 459 2698 684 
Q 2984 909 2984 1272 
Q 2984 1650 2703 1889 
Q 2422 2128 1903 2128 
L 1525 2128 
L 1525 2644 
L 1903 2644 
Q 2313 2644 2567 2861 
Q 2822 3078 2822 3438 
Q 2822 3784 2597 3993 
Q 2372 4203 1991 4203 
Q 1753 4203 1545 4117 
Q 1338 4031 1205 3872 
Q 1072 3713 1063 3484 
L 491 3484 
Q 503 3850 709 4128 
Q 916 4406 1255 4562 
Q 1594 4719 2003 4719 
Q 2438 4719 2752 4544 
Q 3066 4369 3234 4084 
Q 3403 3800 3403 3469 
Q 3403 3075 3195 2800 
Q 2988 2525 2631 2419 
L 2631 2381 
Q 3078 2309 3325 2007 
Q 3572 1706 3572 1266 
Q 3572 884 3365 584 
Q 3159 284 2800 110 
Q 2441 -63 1984 -63 
z
" transform="scale(0.015625)"/>
       </defs>
       <use xlink:href="#Inter-Regular-33"/>
       <use xlink:href="#Inter-Regular-32" transform="translate(61.767578 0)"/>
      </g>
     </g>
    </g>
    <g id="xtick_6">
     <g id="line2d_6">
      <g>
       <use xlink:href="#m6edd98f64f" x="180.043967" y="219.430828" style="stroke: #000000; stroke-width: 0.8"/>
      </g>
     </g>
     <g id="text_6">
      <!-- 64 -->
      <g transform="translate(169.648392 240.527665) rotate(-45) scale(0.1 -0.1)">
       <use xlink:href="#Inter-Regular-36"/>
       <use xlink:href="#Inter-Regular-34" transform="translate(62.011719 0)"/>
      </g>
     </g>
    </g>
    <g id="xtick_7">
     <g id="line2d_7">
      <g>
       <use xlink:href="#m6edd98f64f" x="201.323306" y="219.430828" style="stroke: #000000; stroke-width: 0.8"/>
      </g>
     </g>
     <g id="text_7">
      <!-- 128 -->
      <g transform="translate(188.318065 243.137331) rotate(-45) scale(0.1 -0.1)">
       <use xlink:href="#Inter-Regular-31"/>
       <use xlink:href="#Inter-Regular-32" transform="translate(40.673828 0)"/>
       <use xlink:href="#Inter-Regular-38" transform="translate(101.660156 0)"/>
      </g>
     </g>
    </g>
    <g id="xtick_8">
     <g id="line2d_8">
      <g>
       <use xlink:href="#m6edd98f64f" x="222.602645" y="219.430828" style="stroke: #000000; stroke-width: 0.8"/>
      </g>
     </g>
     <g id="text_8">
      <!-- 256 -->
      <g transform="translate(208.267159 244.467575) rotate(-45) scale(0.1 -0.1)">
       <defs>
        <path id="Inter-Regular-35" d="M 1863 -63 
Q 1453 -63 1128 98 
Q 803 259 609 539 
Q 416 819 400 1175 
L 975 1175 
Q 1003 863 1258 661 
Q 1513 459 1863 459 
Q 2144 459 2364 590 
Q 2584 722 2709 953 
Q 2834 1184 2834 1478 
Q 2834 1778 2703 2015 
Q 2572 2253 2345 2389 
Q 2119 2525 1825 2525 
Q 1609 2525 1387 2456 
Q 1166 2388 1028 2281 
L 472 2350 
L 747 4656 
L 3197 4656 
L 3197 4134 
L 1247 4134 
L 1088 2775 
L 1113 2775 
Q 1256 2894 1475 2970 
Q 1694 3047 1934 3047 
Q 2363 3047 2697 2845 
Q 3031 2644 3223 2291 
Q 3416 1938 3416 1488 
Q 3416 1041 3214 691 
Q 3013 341 2663 139 
Q 2313 -63 1863 -63 
z
" transform="scale(0.015625)"/>
       </defs>
       <use xlink:href="#Inter-Regular-32"/>
       <use xlink:href="#Inter-Regular-35" transform="translate(60.986328 0)"/>
       <use xlink:href="#Inter-Regular-36" transform="translate(120.3125 0)"/>
      </g>
     </g>
    </g>
    <g id="xtick_9">
     <g id="line2d_9">
      <g>
       <use xlink:href="#m6edd98f64f" x="243.881983" y="219.430828" style="stroke: #000000; stroke-width: 0.8"/>
      </g>
     </g>
     <g id="text_9">
      <!-- 512 -->
      <g transform="translate(231.055729 242.958344) rotate(-45) scale(0.1 -0.1)">
       <use xlink:href="#Inter-Regular-35"/>
       <use xlink:href="#Inter-Regular-31" transform="translate(59.326172 0)"/>
       <use xlink:href="#Inter-Regular-32" transform="translate(100 0)"/>
      </g>
     </g>
    </g>
    <g id="xtick_10">
     <g id="line2d_10">
      <g>
       <use xlink:href="#m6edd98f64f" x="265.161322" y="219.430828" style="stroke: #000000; stroke-width: 0.8"/>
      </g>
     </g>
     <g id="text_10">
      <!-- 1024 -->
      <g transform="translate(247.50133 247.792082) rotate(-45) scale(0.1 -0.1)">
       <defs>
        <path id="Inter-Regular-30" d="M 2019 -63 
Q 1241 -63 811 562 
Q 381 1188 381 2325 
Q 381 3456 814 4087 
Q 1247 4719 2019 4719 
Q 2794 4719 3225 4087 
Q 3656 3456 3656 2325 
Q 3656 1188 3228 562 
Q 2800 -63 2019 -63 
z
M 2019 456 
Q 2531 456 2807 948 
Q 3084 1441 3084 2325 
Q 3084 3216 2807 3709 
Q 2531 4203 2019 4203 
Q 1509 4203 1231 3708 
Q 953 3213 953 2325 
Q 953 1441 1231 948 
Q 1509 456 2019 456 
z
" transform="scale(0.015625)"/>
       </defs>
       <use xlink:href="#Inter-Regular-31"/>
       <use xlink:href="#Inter-Regular-30" transform="translate(40.673828 0)"/>
       <use xlink:href="#Inter-Regular-32" transform="translate(103.759766 0)"/>
       <use xlink:href="#Inter-Regular-34" transform="translate(164.746094 0)"/>
      </g>
     </g>
    </g>
    <g id="xtick_11">
     <g id="line2d_11">
      <g>
       <use xlink:href="#m6edd98f64f" x="286.440661" y="219.430828" style="stroke: #000000; stroke-width: 0.8"/>
      </g>
     </g>
     <g id="text_11">
      <!-- 2048 -->
      <g transform="translate(267.282487 249.290264) rotate(-45) scale(0.1 -0.1)">
       <use xlink:href="#Inter-Regular-32"/>
       <use xlink:href="#Inter-Regular-30" transform="translate(60.986328 0)"/>
       <use xlink:href="#Inter-Regular-34" transform="translate(124.072266 0)"/>
       <use xlink:href="#Inter-Regular-38" transform="translate(188.671875 0)"/>
      </g>
     </g>
    </g>
    <g id="xtick_12">
     <g id="line2d_12">
      <g>
       <use xlink:href="#m6edd98f64f" x="307.72" y="219.430828" style="stroke: #000000; stroke-width: 0.8"/>
      </g>
     </g>
     <g id="text_12">
      <!-- 4096 -->
      <g transform="translate(288.477857 249.374233) rotate(-45) scale(0.1 -0.1)">
       <defs>
        <path id="Inter-Regular-39" d="M 1884 -63 
Q 1488 -63 1178 93 
Q 869 250 672 531 
Q 475 813 419 1184 
L 1006 1184 
Q 1078 875 1297 669 
Q 1516 463 1884 463 
Q 2416 463 2723 927 
Q 3031 1391 3031 2238 
L 2994 2238 
Q 2806 1953 2509 1784 
Q 2213 1616 1847 1616 
Q 1447 1616 1112 1814 
Q 778 2013 579 2361 
Q 381 2709 381 3156 
Q 381 3591 578 3948 
Q 775 4306 1129 4517 
Q 1484 4728 1963 4719 
Q 2250 4716 2537 4608 
Q 2825 4500 3062 4253 
Q 3300 4006 3444 3581 
Q 3588 3156 3588 2513 
Q 3588 1278 3131 607 
Q 2675 -63 1884 -63 
z
M 1934 2134 
Q 2219 2134 2447 2279 
Q 2675 2425 2811 2662 
Q 2947 2900 2947 3172 
Q 2947 3441 2817 3673 
Q 2688 3906 2464 4051 
Q 2241 4197 1953 4197 
Q 1672 4197 1448 4058 
Q 1225 3919 1094 3683 
Q 963 3447 963 3159 
Q 963 2875 1089 2642 
Q 1216 2409 1434 2271 
Q 1653 2134 1934 2134 
z
" transform="scale(0.015625)"/>
       </defs>
       <use xlink:href="#Inter-Regular-34"/>
       <use xlink:href="#Inter-Regular-30" transform="translate(64.599609 0)"/>
       <use xlink:href="#Inter-Regular-39" transform="translate(127.685547 0)"/>
       <use xlink:href="#Inter-Regular-36" transform="translate(189.697266 0)"/>
      </g>
     </g>
    </g>
    <g id="xtick_13">
     <g id="line2d_13">
      <g>
       <use xlink:href="#m6edd98f64f" x="328.999339" y="219.430828" style="stroke: #000000; stroke-width: 0.8"/>
      </g>
     </g>
     <g id="text_13">
      <!-- 8192 -->
      <g transform="translate(311.608931 247.522497) rotate(-45) scale(0.1 -0.1)">
       <use xlink:href="#Inter-Regular-38"/>
       <use xlink:href="#Inter-Regular-31" transform="translate(61.865234 0)"/>
       <use xlink:href="#Inter-Regular-39" transform="translate(102.539062 0)"/>
       <use xlink:href="#Inter-Regular-32" transform="translate(164.550781 0)"/>
      </g>
     </g>
    </g>
    <g id="xtick_14">
     <g id="line2d_14">
      <g>
       <use xlink:href="#m6edd98f64f" x="350.278678" y="219.430828" style="stroke: #000000; stroke-width: 0.8"/>
      </g>
     </g>
     <g id="text_14">
      <!-- 16384 -->
      <g transform="translate(328.26556 252.145208) rotate(-45) scale(0.1 -0.1)">
       <use xlink:href="#Inter-Regular-31"/>
       <use xlink:href="#Inter-Regular-36" transform="translate(40.673828 0)"/>
       <use xlink:href="#Inter-Regular-33" transform="translate(102.685547 0)"/>
       <use xlink:href="#Inter-Regular-38" transform="translate(164.453125 0)"/>
       <use xlink:href="#Inter-Regular-34" transform="translate(226.318359 0)"/>
      </g>
     </g>
    </g>
    <g id="xtick_15">
     <g id="line2d_15">
      <g>
       <use xlink:href="#m6edd98f64f" x="371.558017" y="219.430828" style="stroke: #000000; stroke-width: 0.8"/>
      </g>
     </g>
     <g id="text_15">
      <!-- 32768 -->
      <g transform="translate(348.674273 253.015833) rotate(-45) scale(0.1 -0.1)">
       <defs>
        <path id="Inter-Regular-37" d="M 625 0 
L 2694 4097 
L 2694 4134 
L 306 4134 
L 306 4656 
L 3316 4656 
L 3316 4103 
L 1250 0 
L 625 0 
z
" transform="scale(0.015625)"/>
       </defs>
       <use xlink:href="#Inter-Regular-33"/>
       <use xlink:href="#Inter-Regular-32" transform="translate(61.767578 0)"/>
       <use xlink:href="#Inter-Regular-37" transform="translate(122.753906 0)"/>
       <use xlink:href="#Inter-Regular-36" transform="translate(179.345703 0)"/>
       <use xlink:href="#Inter-Regular-38" transform="translate(241.357422 0)"/>
      </g>
     </g>
    </g>
    <g id="xtick_16">
     <g id="line2d_16">
      <g>
       <use xlink:href="#m6edd98f64f" x="392.837355" y="219.430828" style="stroke: #000000; stroke-width: 0.8"/>
      </g>
     </g>
     <g id="text_16">
      <!-- 65536 -->
      <g transform="translate(369.866329 253.103117) rotate(-45) scale(0.1 -0.1)">
       <use xlink:href="#Inter-Regular-36"/>
       <use xlink:href="#Inter-Regular-35" transform="translate(62.011719 0)"/>
       <use xlink:href="#Inter-Regular-35" transform="translate(121.337891 0)"/>
       <use xlink:href="#Inter-Regular-33" transform="translate(180.664062 0)"/>
       <use xlink:href="#Inter-Regular-36" transform="translate(242.431641 0)"/>
      </g>
     </g>
    </g>
    <g id="xtick_17">
     <g id="line2d_17">
      <g>
       <use xlink:href="#m6edd98f64f" x="414.116694" y="219.430828" style="stroke: #000000; stroke-width: 0.8"/>
      </g>
     </g>
     <g id="text_17">
      <!-- 131072 -->
      <g transform="translate(389.778963 254.469822) rotate(-45) scale(0.1 -0.1)">
       <use xlink:href="#Inter-Regular-31"/>
       <use xlink:href="#Inter-Regular-33" transform="translate(40.673828 0)"/>
       <use xlink:href="#Inter-Regular-31" transform="translate(102.441406 0)"/>
       <use xlink:href="#Inter-Regular-30" transform="translate(143.115234 0)"/>
       <use xlink:href="#Inter-Regular-37" transform="translate(206.201172 0)"/>
       <use xlink:href="#Inter-Regular-32" transform="translate(262.792969 0)"/>
      </g>
     </g>
    </g>
    <g id="xtick_18">
     <g id="line2d_18">
      <g>
       <use xlink:href="#m6edd98f64f" x="435.396033" y="219.430828" style="stroke: #000000; stroke-width: 0.8"/>
      </g>
     </g>
     <g id="text_18">
      <!-- 262144 -->
      <g transform="translate(408.932562 256.595561) rotate(-45) scale(0.1 -0.1)">
       <use xlink:href="#Inter-Regular-32"/>
       <use xlink:href="#Inter-Regular-36" transform="translate(60.986328 0)"/>
       <use xlink:href="#Inter-Regular-32" transform="translate(122.998047 0)"/>
       <use xlink:href="#Inter-Regular-31" transform="translate(183.984375 0)"/>
       <use xlink:href="#Inter-Regular-34" transform="translate(224.658203 0)"/>
       <use xlink:href="#Inter-Regular-34" transform="translate(289.257812 0)"/>
      </g>
     </g>
    </g>
    <g id="xtick_19">
     <g id="line2d_19">
      <g>
       <use xlink:href="#m6edd98f64f" x="456.675372" y="219.430828" style="stroke: #000000; stroke-width: 0.8"/>
      </g>
     </g>
     <g id="text_19">
      <!-- 524288 -->
      <g transform="translate(429.097103 257.710359) rotate(-45) scale(0.1 -0.1)">
       <use xlink:href="#Inter-Regular-35"/>
       <use xlink:href="#Inter-Regular-32" transform="translate(59.326172 0)"/>
       <use xlink:href="#Inter-Regular-34" transform="translate(120.3125 0)"/>
       <use xlink:href="#Inter-Regular-32" transform="translate(184.912109 0)"/>
       <use xlink:href="#Inter-Regular-38" transform="translate(245.898438 0)"/>
       <use xlink:href="#Inter-Regular-38" transform="translate(307.763672 0)"/>
      </g>
     </g>
    </g>
    <g id="xtick_20">
     <g id="line2d_20">
      <g>
       <use xlink:href="#m6edd98f64f" x="477.954711" y="219.430828" style="stroke: #000000; stroke-width: 0.8"/>
      </g>
     </g>
     <g id="text_20">
      <!-- 1048576 -->
      <g transform="translate(447.650766 260.436035) rotate(-45) scale(0.1 -0.1)">
       <use xlink:href="#Inter-Regular-31"/>
       <use xlink:href="#Inter-Regular-30" transform="translate(40.673828 0)"/>
       <use xlink:href="#Inter-Regular-34" transform="translate(103.759766 0)"/>
       <use xlink:href="#Inter-Regular-38" transform="translate(168.359375 0)"/>
       <use xlink:href="#Inter-Regular-35" transform="translate(230.224609 0)"/>
       <use xlink:href="#Inter-Regular-37" transform="translate(289.550781 0)"/>
       <use xlink:href="#Inter-Regular-36" transform="translate(346.142578 0)"/>
      </g>
     </g>
    </g>
    <g id="xtick_21">
     <g id="line2d_21">
      <g>
       <use xlink:href="#m6edd98f64f" x="499.23405" y="219.430828" style="stroke: #000000; stroke-width: 0.8"/>
      </g>
     </g>
     <g id="text_21">
      <!-- 2097152 -->
      <g transform="translate(469.247198 260.118942) rotate(-45) scale(0.1 -0.1)">
       <use xlink:href="#Inter-Regular-32"/>
       <use xlink:href="#Inter-Regular-30" transform="translate(60.986328 0)"/>
       <use xlink:href="#Inter-Regular-39" transform="translate(124.072266 0)"/>
       <use xlink:href="#Inter-Regular-37" transform="translate(186.083984 0)"/>
       <use xlink:href="#Inter-Regular-31" transform="translate(242.675781 0)"/>
       <use xlink:href="#Inter-Regular-35" transform="translate(283.349609 0)"/>
       <use xlink:href="#Inter-Regular-32" transform="translate(342.675781 0)"/>
      </g>
     </g>
    </g>
    <g id="xtick_22">
     <g id="line2d_22">
      <g>
       <use xlink:href="#m6edd98f64f" x="520.513388" y="219.430828" style="stroke: #000000; stroke-width: 0.8"/>
      </g>
     </g>
     <g id="text_22">
      <!-- 4194304 -->
      <g transform="translate(489.278051 261.367427) rotate(-45) scale(0.1 -0.1)">
       <use xlink:href="#Inter-Regular-34"/>
       <use xlink:href="#Inter-Regular-31" transform="translate(64.599609 0)"/>
       <use xlink:href="#Inter-Regular-39" transform="translate(105.273438 0)"/>
       <use xlink:href="#Inter-Regular-34" transform="translate(167.285156 0)"/>
       <use xlink:href="#Inter-Regular-33" transform="translate(231.884766 0)"/>
       <use xlink:href="#Inter-Regular-30" transform="translate(293.652344 0)"/>
       <use xlink:href="#Inter-Regular-34" transform="translate(356.738281 0)"/>
      </g>
     </g>
    </g>
    <g id="xtick_23">
     <g id="line2d_23">
      <g>
       <use xlink:href="#m6edd98f64f" x="541.792727" y="219.430828" style="stroke: #000000; stroke-width: 0.8"/>
      </g>
     </g>
     <g id="text_23">
      <!-- 8388608 -->
      <g transform="translate(509.639256 262.285561) rotate(-45) scale(0.1 -0.1)">
       <use xlink:href="#Inter-Regular-38"/>
       <use xlink:href="#Inter-Regular-33" transform="translate(61.865234 0)"/>
       <use xlink:href="#Inter-Regular-38" transform="translate(123.632812 0)"/>
       <use xlink:href="#Inter-Regular-38" transform="translate(185.498047 0)"/>
       <use xlink:href="#Inter-Regular-36" transform="translate(247.363281 0)"/>
       <use xlink:href="#Inter-Regular-30" transform="translate(309.375 0)"/>
       <use xlink:href="#Inter-Regular-38" transform="translate(372.460938 0)"/>
      </g>
     </g>
    </g>
    <g id="text_24">
     <!-- Message size (bytes) -->
     <g transform="translate(257.174687 275.448813) scale(0.1 -0.1)">
      <defs>
       <path id="Inter-Regular-4d" d="M 563 0 
L 563 4656 
L 1406 4656 
L 2553 1719 
Q 2619 1550 2716 1247 
Q 2813 944 2897 659 
Q 2978 934 3075 1239 
Q 3172 1544 3241 1719 
L 4372 4656 
L 5219 4656 
L 5219 0 
L 4634 0 
L 4634 2659 
Q 4634 2916 4640 3287 
Q 4647 3659 4656 4022 
Q 4528 3622 4398 3244 
Q 4269 2866 4188 2659 
L 3147 0 
L 2631 0 
L 1575 2659 
Q 1497 2856 1370 3229 
Q 1244 3603 1106 4013 
Q 1113 3681 1120 3304 
Q 1128 2928 1128 2659 
L 1128 0 
L 563 0 
z
" transform="scale(0.015625)"/>
       <path id="Inter-Regular-65" d="M 1963 -75 
Q 1456 -75 1089 150 
Q 722 375 523 778 
Q 325 1181 325 1719 
Q 325 2256 519 2665 
Q 713 3075 1067 3306 
Q 1422 3538 1897 3538 
Q 2175 3538 2445 3445 
Q 2716 3353 2936 3148 
Q 3156 2944 3287 2609 
Q 3419 2275 3419 1791 
L 3419 1556 
L 894 1556 
Q 916 1009 1208 717 
Q 1500 425 1966 425 
Q 2275 425 2498 561 
Q 2722 697 2819 963 
L 3363 813 
Q 3241 416 2870 170 
Q 2500 -75 1963 -75 
z
M 897 2031 
L 2847 2031 
Q 2806 2478 2567 2758 
Q 2328 3038 1897 3038 
Q 1597 3038 1380 2897 
Q 1163 2756 1038 2528 
Q 913 2300 897 2031 
z
" transform="scale(0.015625)"/>
       <path id="Inter-Regular-73" d="M 1681 -75 
Q 1144 -75 787 159 
Q 431 394 338 847 
L 872 975 
Q 947 688 1155 553 
Q 1363 419 1675 419 
Q 2041 419 2258 575 
Q 2475 731 2475 947 
Q 2475 1306 1963 1428 
L 1381 1566 
Q 444 1788 444 2519 
Q 444 2819 612 3048 
Q 781 3278 1073 3408 
Q 1366 3538 1738 3538 
Q 2278 3538 2576 3302 
Q 2875 3066 2994 2697 
L 2484 2566 
Q 2413 2753 2245 2906 
Q 2078 3059 1741 3059 
Q 1428 3059 1220 2915 
Q 1013 2772 1013 2553 
Q 1013 2359 1153 2242 
Q 1294 2125 1600 2053 
L 2128 1928 
Q 2603 1816 2831 1580 
Q 3059 1344 3059 984 
Q 3059 678 2886 439 
Q 2713 200 2402 62 
Q 2091 -75 1681 -75 
z
" transform="scale(0.015625)"/>
       <path id="Inter-Regular-61" d="M 1472 -81 
Q 1141 -81 870 44 
Q 600 169 440 409 
Q 281 650 281 994 
Q 281 1294 400 1481 
Q 519 1669 717 1776 
Q 916 1884 1156 1937 
Q 1397 1991 1641 2022 
Q 1953 2063 2150 2084 
Q 2347 2106 2442 2159 
Q 2538 2213 2538 2341 
L 2538 2359 
Q 2538 2684 2353 2864 
Q 2169 3044 1806 3044 
Q 1428 3044 1215 2880 
Q 1003 2716 922 2531 
L 381 2709 
Q 516 3028 744 3208 
Q 972 3388 1247 3463 
Q 1522 3538 1791 3538 
Q 1966 3538 2189 3495 
Q 2413 3453 2620 3328 
Q 2828 3203 2964 2958 
Q 3100 2713 3100 2303 
L 3100 0 
L 2547 0 
L 2547 475 
L 2509 475 
Q 2450 353 2319 223 
Q 2188 94 1978 6 
Q 1769 -81 1472 -81 
z
M 1569 416 
Q 1881 416 2097 537 
Q 2313 659 2425 854 
Q 2538 1050 2538 1263 
L 2538 1747 
Q 2503 1706 2387 1673 
Q 2272 1641 2123 1616 
Q 1975 1591 1836 1573 
Q 1697 1556 1616 1547 
Q 1413 1522 1236 1461 
Q 1059 1400 953 1283 
Q 847 1166 847 966 
Q 847 694 1051 555 
Q 1256 416 1569 416 
z
" transform="scale(0.015625)"/>
       <path id="Inter-Regular-67" d="M 1909 -1381 
Q 1328 -1381 981 -1168 
Q 634 -956 472 -669 
L 928 -375 
Q 1003 -475 1114 -597 
Q 1225 -719 1414 -805 
Q 1603 -891 1909 -891 
Q 2328 -891 2598 -691 
Q 2869 -491 2869 -59 
L 2869 641 
L 2816 641 
Q 2756 541 2648 403 
Q 2541 266 2339 161 
Q 2138 56 1800 56 
Q 1381 56 1047 254 
Q 713 453 519 834 
Q 325 1216 325 1763 
Q 325 2303 515 2701 
Q 706 3100 1042 3319 
Q 1378 3538 1813 3538 
Q 2150 3538 2351 3427 
Q 2553 3316 2662 3172 
Q 2772 3028 2831 2934 
L 2884 2934 
L 2884 3494 
L 3431 3494 
L 3431 -91 
Q 3431 -541 3228 -827 
Q 3025 -1113 2679 -1247 
Q 2334 -1381 1909 -1381 
z
M 1894 556 
Q 2369 556 2622 879 
Q 2875 1203 2875 1775 
Q 2875 2331 2626 2682 
Q 2378 3034 1894 3034 
Q 1563 3034 1341 2864 
Q 1119 2694 1008 2409 
Q 897 2125 897 1775 
Q 897 1238 1150 897 
Q 1403 556 1894 556 
z
" transform="scale(0.015625)"/>
       <path id="Inter-Regular-20" transform="scale(0.015625)"/>
       <path id="Inter-Regular-69" d="M 494 0 
L 494 3494 
L 1056 3494 
L 1056 0 
L 494 0 
z
M 780 4066 
Q 621 4066 505 4175 
Q 389 4284 389 4438 
Q 389 4594 505 4701 
Q 621 4809 780 4809 
Q 942 4809 1058 4701 
Q 1174 4594 1174 4438 
Q 1174 4284 1058 4175 
Q 942 4066 780 4066 
z
" transform="scale(0.015625)"/>
       <path id="Inter-Regular-7a" d="M 394 0 
L 394 419 
L 2353 2938 
L 2353 2972 
L 456 2972 
L 456 3494 
L 3078 3494 
L 3078 3047 
L 1175 556 
L 1175 522 
L 3141 522 
L 3141 0 
L 394 0 
z
" transform="scale(0.015625)"/>
       <path id="Inter-Regular-28" d="M 681 1897 
Q 681 2406 786 2964 
Q 891 3522 1072 4039 
Q 1253 4556 1488 4941 
L 2034 4941 
Q 1794 4450 1617 3919 
Q 1441 3388 1347 2870 
Q 1253 2353 1253 1897 
Q 1253 1275 1442 617 
Q 1631 -41 2034 -872 
L 1488 -872 
Q 1091 -194 886 509 
Q 681 1213 681 1897 
z
" transform="scale(0.015625)"/>
       <path id="Inter-Regular-62" d="M 2116 -75 
Q 1784 -75 1581 39 
Q 1378 153 1268 298 
Q 1159 444 1100 541 
L 1038 541 
L 1038 0 
L 494 0 
L 494 4656 
L 1056 4656 
L 1056 2934 
L 1100 2934 
Q 1159 3028 1265 3170 
Q 1372 3313 1572 3425 
Q 1772 3538 2113 3538 
Q 2550 3538 2883 3319 
Q 3216 3100 3405 2695 
Q 3594 2291 3594 1738 
Q 3594 1181 3406 775 
Q 3219 369 2886 147 
Q 2553 -75 2116 -75 
z
M 2031 428 
Q 2359 428 2579 604 
Q 2800 781 2911 1079 
Q 3022 1378 3022 1744 
Q 3022 2106 2912 2398 
Q 2803 2691 2583 2862 
Q 2363 3034 2031 3034 
Q 1550 3034 1300 2678 
Q 1050 2322 1050 1744 
Q 1050 1159 1303 793 
Q 1556 428 2031 428 
z
" transform="scale(0.015625)"/>
       <path id="Inter-Regular-79" d="M 438 -1266 
L 581 -778 
L 641 -794 
Q 900 -863 1087 -773 
Q 1275 -684 1403 -309 
L 1503 -19 
L 169 3494 
L 784 3494 
L 1528 1422 
Q 1609 1194 1673 969 
Q 1738 744 1797 525 
Q 1856 744 1920 969 
Q 1984 1194 2066 1422 
L 2816 3494 
L 3428 3494 
L 1894 -522 
Q 1734 -938 1478 -1134 
Q 1222 -1331 850 -1331 
Q 700 -1331 590 -1309 
Q 481 -1288 438 -1266 
z
" transform="scale(0.015625)"/>
       <path id="Inter-Regular-74" d="M 1869 3494 
L 1869 3013 
L 1150 3013 
L 1150 906 
Q 1150 672 1245 564 
Q 1341 456 1563 456 
Q 1616 456 1698 468 
Q 1781 481 1850 494 
L 1966 19 
Q 1878 -13 1767 -28 
Q 1656 -44 1547 -44 
Q 1094 -44 841 195 
Q 588 434 588 863 
L 588 3013 
L 63 3013 
L 63 3494 
L 588 3494 
L 588 4325 
L 1150 4325 
L 1150 3494 
L 1869 3494 
z
" transform="scale(0.015625)"/>
       <path id="Inter-Regular-29" d="M 300 -872 
Q 716 -16 898 639 
Q 1081 1294 1081 1897 
Q 1081 2353 987 2870 
Q 894 3388 719 3919 
Q 544 4450 300 4941 
L 847 4941 
Q 1081 4556 1264 4039 
Q 1447 3522 1550 2962 
Q 1653 2403 1653 1897 
Q 1653 1200 1445 497 
Q 1238 -206 847 -872 
L 300 -872 
z
" transform="scale(0.015625)"/>
      </defs>
      <use xlink:href="#Inter-Regular-4d"/>
      <use xlink:href="#Inter-Regular-65" transform="translate(90.332031 0)"/>
      <use xlink:href="#Inter-Regular-73" transform="translate(148.632812 0)"/>
      <use xlink:href="#Inter-Regular-73" transform="translate(201.416016 0)"/>
      <use xlink:href="#Inter-Regular-61" transform="translate(254.199219 0)"/>
      <use xlink:href="#Inter-Regular-67" transform="translate(310.351562 0)"/>
      <use xlink:href="#Inter-Regular-65" transform="translate(371.679688 0)"/>
      <use xlink:href="#Inter-Regular-20" transform="translate(429.980469 0)"/>
      <use xlink:href="#Inter-Regular-73" transform="translate(458.105469 0)"/>
      <use xlink:href="#Inter-Regular-69" transform="translate(510.888672 0)"/>
      <use xlink:href="#Inter-Regular-7a" transform="translate(535.107422 0)"/>
      <use xlink:href="#Inter-Regular-65" transform="translate(590.332031 0)"/>
      <use xlink:href="#Inter-Regular-20" transform="translate(648.632812 0)"/>
      <use xlink:href="#Inter-Regular-28" transform="translate(676.757812 0)"/>
      <use xlink:href="#Inter-Regular-62" transform="translate(713.232422 0)"/>
      <use xlink:href="#Inter-Regular-79" transform="translate(774.462891 0)"/>
      <use xlink:href="#Inter-Regular-74" transform="translate(830.664062 0)"/>
      <use xlink:href="#Inter-Regular-65" transform="translate(863.378906 0)"/>
      <use xlink:href="#Inter-Regular-73" transform="translate(921.679688 0)"/>
      <use xlink:href="#Inter-Regular-29" transform="translate(974.462891 0)"/>
     </g>
    </g>
   </g>
   <g id="matplotlib.axis_2">
    <g id="ytick_1">
     <g id="line2d_24">
      <path d="M 50.24 210.10004 
L 565.2 210.10004 
" clip-path="url(#p6a4af44c60)" style="fill: none; stroke-dasharray: 0.8,1.32; stroke-dashoffset: 0; stroke: #b0b0b0; stroke-width: 0.8"/>
     </g>
     <g id="line2d_25">
      <defs>
       <path id="me2573d1239" d="M 0 0 
L -3.5 0 
" style="stroke: #000000; stroke-width: 0.8"/>
      </defs>
      <g>
       <use xlink:href="#me2573d1239" x="50.24" y="210.10004" style="stroke: #000000; stroke-width: 0.8"/>
      </g>
     </g>
     <g id="text_25">
      <!-- 0 -->
      <g transform="translate(36.930625 213.73754) scale(0.1 -0.1)">
       <use xlink:href="#Inter-Regular-30"/>
      </g>
     </g>
    </g>
    <g id="ytick_2">
     <g id="line2d_26">
      <path d="M 50.24 185.92756 
L 565.2 185.92756 
" clip-path="url(#p6a4af44c60)" style="fill: none; stroke-dasharray: 0.8,1.32; stroke-dashoffset: 0; stroke: #b0b0b0; stroke-width: 0.8"/>
     </g>
     <g id="line2d_27">
      <g>
       <use xlink:href="#me2573d1239" x="50.24" y="185.92756" style="stroke: #000000; stroke-width: 0.8"/>
      </g>
     </g>
     <g id="text_26">
      <!-- 50 -->
      <g transform="translate(30.997813 189.56506) scale(0.1 -0.1)">
       <use xlink:href="#Inter-Regular-35"/>
       <use xlink:href="#Inter-Regular-30" transform="translate(59.326172 0)"/>
      </g>
     </g>
    </g>
    <g id="ytick_3">
     <g id="line2d_28">
      <path d="M 50.24 161.755079 
L 565.2 161.755079 
" clip-path="url(#p6a4af44c60)" style="fill: none; stroke-dasharray: 0.8,1.32; stroke-dashoffset: 0; stroke: #b0b0b0; stroke-width: 0.8"/>
     </g>
     <g id="line2d_29">
      <g>
       <use xlink:href="#me2573d1239" x="50.24" y="161.755079" style="stroke: #000000; stroke-width: 0.8"/>
      </g>
     </g>
     <g id="text_27">
      <!-- 100 -->
      <g transform="translate(26.554063 165.392579) scale(0.1 -0.1)">
       <use xlink:href="#Inter-Regular-31"/>
       <use xlink:href="#Inter-Regular-30" transform="translate(40.673828 0)"/>
       <use xlink:href="#Inter-Regular-30" transform="translate(103.759766 0)"/>
      </g>
     </g>
    </g>
    <g id="ytick_4">
     <g id="line2d_30">
      <path d="M 50.24 137.582599 
L 565.2 137.582599 
" clip-path="url(#p6a4af44c60)" style="fill: none; stroke-dasharray: 0.8,1.32; stroke-dashoffset: 0; stroke: #b0b0b0; stroke-width: 0.8"/>
     </g>
     <g id="line2d_31">
      <g>
       <use xlink:href="#me2573d1239" x="50.24" y="137.582599" style="stroke: #000000; stroke-width: 0.8"/>
      </g>
     </g>
     <g id="text_28">
      <!-- 150 -->
      <g transform="translate(26.930625 141.220099) scale(0.1 -0.1)">
       <use xlink:href="#Inter-Regular-31"/>
       <use xlink:href="#Inter-Regular-35" transform="translate(40.673828 0)"/>
       <use xlink:href="#Inter-Regular-30" transform="translate(100 0)"/>
      </g>
     </g>
    </g>
    <g id="ytick_5">
     <g id="line2d_32">
      <path d="M 50.24 113.410118 
L 565.2 113.410118 
" clip-path="url(#p6a4af44c60)" style="fill: none; stroke-dasharray: 0.8,1.32; stroke-dashoffset: 0; stroke: #b0b0b0; stroke-width: 0.8"/>
     </g>
     <g id="line2d_33">
      <g>
       <use xlink:href="#me2573d1239" x="50.24" y="113.410118" style="stroke: #000000; stroke-width: 0.8"/>
      </g>
     </g>
     <g id="text_29">
      <!-- 200 -->
      <g transform="translate(24.522813 117.047618) scale(0.1 -0.1)">
       <use xlink:href="#Inter-Regular-32"/>
       <use xlink:href="#Inter-Regular-30" transform="translate(60.986328 0)"/>
       <use xlink:href="#Inter-Regular-30" transform="translate(124.072266 0)"/>
      </g>
     </g>
    </g>
    <g id="ytick_6">
     <g id="line2d_34">
      <path d="M 50.24 89.237637 
L 565.2 89.237637 
" clip-path="url(#p6a4af44c60)" style="fill: none; stroke-dasharray: 0.8,1.32; stroke-dashoffset: 0; stroke: #b0b0b0; stroke-width: 0.8"/>
     </g>
     <g id="line2d_35">
      <g>
       <use xlink:href="#me2573d1239" x="50.24" y="89.237637" style="stroke: #000000; stroke-width: 0.8"/>
      </g>
     </g>
     <g id="text_30">
      <!-- 250 -->
      <g transform="translate(24.899375 92.875137) scale(0.1 -0.1)">
       <use xlink:href="#Inter-Regular-32"/>
       <use xlink:href="#Inter-Regular-35" transform="translate(60.986328 0)"/>
       <use xlink:href="#Inter-Regular-30" transform="translate(120.3125 0)"/>
      </g>
     </g>
    </g>
    <g id="ytick_7">
     <g id="line2d_36">
      <path d="M 50.24 65.065157 
L 565.2 65.065157 
" clip-path="url(#p6a4af44c60)" style="fill: none; stroke-dasharray: 0.8,1.32; stroke-dashoffset: 0; stroke: #b0b0b0; stroke-width: 0.8"/>
     </g>
     <g id="line2d_37">
      <g>
       <use xlink:href="#me2573d1239" x="50.24" y="65.065157" style="stroke: #000000; stroke-width: 0.8"/>
      </g>
     </g>
     <g id="text_31">
      <!-- 300 -->
      <g transform="translate(24.444688 68.702657) scale(0.1 -0.1)">
       <use xlink:href="#Inter-Regular-33"/>
       <use xlink:href="#Inter-Regular-30" transform="translate(61.767578 0)"/>
       <use xlink:href="#Inter-Regular-30" transform="translate(124.853516 0)"/>
      </g>
     </g>
    </g>
    <g id="ytick_8">
     <g id="line2d_38">
      <path d="M 50.24 40.892676 
L 565.2 40.892676 
" clip-path="url(#p6a4af44c60)" style="fill: none; stroke-dasharray: 0.8,1.32; stroke-dashoffset: 0; stroke: #b0b0b0; stroke-width: 0.8"/>
     </g>
     <g id="line2d_39">
      <g>
       <use xlink:href="#me2573d1239" x="50.24" y="40.892676" style="stroke: #000000; stroke-width: 0.8"/>
      </g>
     </g>
     <g id="text_32">
      <!-- 350 -->
      <g transform="translate(24.82125 44.530176) scale(0.1 -0.1)">
       <use xlink:href="#Inter-Regular-33"/>
       <use xlink:href="#Inter-Regular-35" transform="translate(61.767578 0)"/>
       <use xlink:href="#Inter-Regular-30" transform="translate(121.09375 0)"/>
      </g>
     </g>
    </g>
    <g id="ytick_9">
     <g id="line2d_40">
      <path d="M 50.24 16.720196 
L 565.2 16.720196 
" clip-path="url(#p6a4af44c60)" style="fill: none; stroke-dasharray: 0.8,1.32; stroke-dashoffset: 0; stroke: #b0b0b0; stroke-width: 0.8"/>
     </g>
     <g id="line2d_41">
      <g>
       <use xlink:href="#me2573d1239" x="50.24" y="16.720196" style="stroke: #000000; stroke-width: 0.8"/>
      </g>
     </g>
     <g id="text_33">
      <!-- 400 -->
      <g transform="translate(24.161875 20.357696) scale(0.1 -0.1)">
       <use xlink:href="#Inter-Regular-34"/>
       <use xlink:href="#Inter-Regular-30" transform="translate(64.599609 0)"/>
       <use xlink:href="#Inter-Regular-30" transform="translate(127.685547 0)"/>
      </g>
     </g>
    </g>
    <g id="text_34">
     <!-- Bandwidth (Gb/s) -->
     <g transform="translate(18.12125 156.453695) rotate(-90) scale(0.1 -0.1)">
      <defs>
       <path id="Inter-Regular-42" d="M 563 0 
L 563 4656 
L 2213 4656 
Q 2700 4656 3017 4489 
Q 3334 4322 3489 4042 
Q 3644 3763 3644 3422 
Q 3644 3122 3537 2926 
Q 3431 2731 3257 2615 
Q 3084 2500 2881 2444 
L 2881 2400 
Q 3100 2388 3317 2250 
Q 3534 2113 3679 1859 
Q 3825 1606 3825 1241 
Q 3825 891 3664 609 
Q 3503 328 3159 164 
Q 2816 0 2266 0 
L 563 0 
z
M 1156 525 
L 2250 525 
Q 2794 525 3023 734 
Q 3253 944 3253 1247 
Q 3253 1481 3134 1678 
Q 3016 1875 2798 1994 
Q 2581 2113 2281 2113 
L 1156 2113 
L 1156 525 
z
M 1156 2613 
L 2181 2613 
Q 2556 2613 2815 2831 
Q 3075 3050 3075 3409 
Q 3075 3713 2864 3922 
Q 2653 4131 2200 4131 
L 1156 4131 
L 1156 2613 
z
" transform="scale(0.015625)"/>
       <path id="Inter-Regular-6e" d="M 1056 2094 
L 1056 0 
L 494 0 
L 494 3494 
L 1034 3494 
L 1038 2847 
Q 1206 3219 1479 3378 
Q 1753 3538 2106 3538 
Q 2638 3538 2963 3209 
Q 3288 2881 3288 2219 
L 3288 0 
L 2725 0 
L 2725 2172 
Q 2725 2575 2514 2803 
Q 2303 3031 1938 3031 
Q 1559 3031 1307 2786 
Q 1056 2541 1056 2094 
z
" transform="scale(0.015625)"/>
       <path id="Inter-Regular-64" d="M 1803 -75 
Q 1369 -75 1034 147 
Q 700 369 512 775 
Q 325 1181 325 1738 
Q 325 2291 514 2695 
Q 703 3100 1037 3319 
Q 1372 3538 1806 3538 
Q 2147 3538 2347 3425 
Q 2547 3313 2655 3170 
Q 2763 3028 2819 2934 
L 2863 2934 
L 2863 4656 
L 3425 4656 
L 3425 0 
L 2881 0 
L 2881 541 
L 2819 541 
Q 2763 444 2652 298 
Q 2541 153 2339 39 
Q 2138 -75 1803 -75 
z
M 1888 428 
Q 2363 428 2616 793 
Q 2869 1159 2869 1744 
Q 2869 2322 2620 2678 
Q 2372 3034 1888 3034 
Q 1556 3034 1336 2862 
Q 1116 2691 1006 2398 
Q 897 2106 897 1744 
Q 897 1378 1008 1079 
Q 1119 781 1341 604 
Q 1563 428 1888 428 
z
" transform="scale(0.015625)"/>
       <path id="Inter-Regular-77" d="M 1278 0 
L 219 3494 
L 816 3494 
L 1241 1969 
Q 1316 1697 1403 1358 
Q 1491 1019 1575 603 
Q 1659 1003 1742 1340 
Q 1825 1678 1906 1969 
L 2325 3494 
L 2925 3494 
L 3338 1969 
Q 3413 1688 3495 1352 
Q 3578 1016 3659 613 
Q 3747 1013 3833 1348 
Q 3919 1684 3997 1969 
L 4422 3494 
L 5019 3494 
L 3959 0 
L 3400 0 
L 2947 1581 
Q 2859 1881 2779 2200 
Q 2700 2519 2619 2853 
Q 2541 2519 2458 2197 
Q 2375 1875 2291 1581 
L 1838 0 
L 1278 0 
z
" transform="scale(0.015625)"/>
       <path id="Inter-Regular-68" d="M 1056 2094 
L 1056 0 
L 494 0 
L 494 4656 
L 1056 4656 
L 1056 2888 
Q 1228 3238 1495 3388 
Q 1763 3538 2106 3538 
Q 2638 3538 2964 3209 
Q 3291 2881 3291 2219 
L 3291 0 
L 2725 0 
L 2725 2172 
Q 2725 2575 2514 2803 
Q 2303 3031 1938 3031 
Q 1559 3031 1307 2786 
Q 1056 2541 1056 2094 
z
" transform="scale(0.015625)"/>
       <path id="Inter-Regular-47" d="M 2466 -63 
Q 1844 -63 1375 228 
Q 906 519 643 1055 
Q 381 1591 381 2325 
Q 381 3066 643 3602 
Q 906 4138 1368 4428 
Q 1831 4719 2428 4719 
Q 2922 4719 3323 4526 
Q 3725 4334 3990 3992 
Q 4256 3650 4341 3197 
L 3728 3197 
Q 3584 3644 3254 3906 
Q 2925 4169 2431 4169 
Q 2022 4169 1687 3958 
Q 1353 3747 1156 3336 
Q 959 2925 959 2325 
Q 959 1731 1157 1322 
Q 1356 913 1697 700 
Q 2038 488 2466 488 
Q 2853 488 3150 650 
Q 3447 813 3617 1113 
Q 3788 1413 3794 1822 
L 2588 1822 
L 2588 2341 
L 4375 2341 
L 4375 1831 
Q 4375 1253 4128 828 
Q 3881 403 3451 170 
Q 3022 -63 2466 -63 
z
" transform="scale(0.015625)"/>
       <path id="Inter-Regular-2f" d="M 2163 4875 
L 663 -700 
L 144 -700 
L 1644 4875 
L 2163 4875 
z
" transform="scale(0.015625)"/>
      </defs>
      <use xlink:href="#Inter-Regular-42"/>
      <use xlink:href="#Inter-Regular-61" transform="translate(65.429688 0)"/>
      <use xlink:href="#Inter-Regular-6e" transform="translate(121.582031 0)"/>
      <use xlink:href="#Inter-Regular-64" transform="translate(180.664062 0)"/>
      <use xlink:href="#Inter-Regular-77" transform="translate(241.894531 0)"/>
      <use xlink:href="#Inter-Regular-69" transform="translate(323.730469 0)"/>
      <use xlink:href="#Inter-Regular-64" transform="translate(347.949219 0)"/>
      <use xlink:href="#Inter-Regular-74" transform="translate(409.179688 0)"/>
      <use xlink:href="#Inter-Regular-68" transform="translate(441.894531 0)"/>
      <use xlink:href="#Inter-Regular-20" transform="translate(501.025391 0)"/>
      <use xlink:href="#Inter-Regular-28" transform="translate(529.150391 0)"/>
      <use xlink:href="#Inter-Regular-47" transform="translate(565.625 0)"/>
      <use xlink:href="#Inter-Regular-62" transform="translate(640.234375 0)"/>
      <use xlink:href="#Inter-Regular-2f" transform="translate(701.464844 0)"/>
      <use xlink:href="#Inter-Regular-73" transform="translate(737.5 0)"/>
      <use xlink:href="#Inter-Regular-29" transform="translate(790.283203 0)"/>
     </g>
    </g>
   </g>
   <g id="line2d_42">
    <path d="M 73.647273 209.945336 
L 94.926612 209.790632 
L 116.20595 209.481225 
L 137.485289 208.872078 
L 158.764628 207.648951 
L 180.043967 205.212365 
L 201.323306 200.3682 
L 222.602645 190.892587 
L 243.881983 172.236267 
L 265.161322 138.428635 
L 286.440661 93.878754 
L 307.72 53.351173 
L 328.999339 35.458703 
L 350.278678 20.679648 
L 371.558017 20.505606 
L 392.837355 20.341233 
L 414.116694 20.283219 
L 435.396033 20.297723 
L 456.675372 20.346068 
L 477.954711 20.365406 
L 499.23405 20.379909 
L 520.513388 20.375075 
L 541.792727 20.375075 
" clip-path="url(#p6a4af44c60)" style="fill: none; stroke-dasharray: 1.5,2.475; stroke-dashoffset: 0; stroke: #1f77b4; stroke-width: 1.5"/>
    <defs>
     <path id="mef578b41da" d="M 0 3 
C 0.795609 3 1.55874 2.683901 2.12132 2.12132 
C 2.683901 1.55874 3 0.795609 3 0 
C 3 -0.795609 2.683901 -1.55874 2.12132 -2.12132 
C 1.55874 -2.683901 0.795609 -3 0 -3 
C -0.795609 -3 -1.55874 -2.683901 -2.12132 -2.12132 
C -2.683901 -1.55874 -3 -0.795609 -3 0 
C -3 0.795609 -2.683901 1.55874 -2.12132 2.12132 
C -1.55874 2.683901 -0.795609 3 0 3 
z
" style="stroke: #1f77b4"/>
    </defs>
    <g clip-path="url(#p6a4af44c60)">
     <use xlink:href="#mef578b41da" x="73.647273" y="209.945336" style="fill: #1f77b4; stroke: #1f77b4"/>
     <use xlink:href="#mef578b41da" x="94.926612" y="209.790632" style="fill: #1f77b4; stroke: #1f77b4"/>
     <use xlink:href="#mef578b41da" x="116.20595" y="209.481225" style="fill: #1f77b4; stroke: #1f77b4"/>
     <use xlink:href="#mef578b41da" x="137.485289" y="208.872078" style="fill: #1f77b4; stroke: #1f77b4"/>
     <use xlink:href="#mef578b41da" x="158.764628" y="207.648951" style="fill: #1f77b4; stroke: #1f77b4"/>
     <use xlink:href="#mef578b41da" x="180.043967" y="205.212365" style="fill: #1f77b4; stroke: #1f77b4"/>
     <use xlink:href="#mef578b41da" x="201.323306" y="200.3682" style="fill: #1f77b4; stroke: #1f77b4"/>
     <use xlink:href="#mef578b41da" x="222.602645" y="190.892587" style="fill: #1f77b4; stroke: #1f77b4"/>
     <use xlink:href="#mef578b41da" x="243.881983" y="172.236267" style="fill: #1f77b4; stroke: #1f77b4"/>
     <use xlink:href="#mef578b41da" x="265.161322" y="138.428635" style="fill: #1f77b4; stroke: #1f77b4"/>
     <use xlink:href="#mef578b41da" x="286.440661" y="93.878754" style="fill: #1f77b4; stroke: #1f77b4"/>
     <use xlink:href="#mef578b41da" x="307.72" y="53.351173" style="fill: #1f77b4; stroke: #1f77b4"/>
     <use xlink:href="#mef578b41da" x="328.999339" y="35.458703" style="fill: #1f77b4; stroke: #1f77b4"/>
     <use xlink:href="#mef578b41da" x="350.278678" y="20.679648" style="fill: #1f77b4; stroke: #1f77b4"/>
     <use xlink:href="#mef578b41da" x="371.558017" y="20.505606" style="fill: #1f77b4; stroke: #1f77b4"/>
     <use xlink:href="#mef578b41da" x="392.837355" y="20.341233" style="fill: #1f77b4; stroke: #1f77b4"/>
     <use xlink:href="#mef578b41da" x="414.116694" y="20.283219" style="fill: #1f77b4; stroke: #1f77b4"/>
     <use xlink:href="#mef578b41da" x="435.396033" y="20.297723" style="fill: #1f77b4; stroke: #1f77b4"/>
     <use xlink:href="#mef578b41da" x="456.675372" y="20.346068" style="fill: #1f77b4; stroke: #1f77b4"/>
     <use xlink:href="#mef578b41da" x="477.954711" y="20.365406" style="fill: #1f77b4; stroke: #1f77b4"/>
     <use xlink:href="#mef578b41da" x="499.23405" y="20.379909" style="fill: #1f77b4; stroke: #1f77b4"/>
     <use xlink:href="#mef578b41da" x="520.513388" y="20.375075" style="fill: #1f77b4; stroke: #1f77b4"/>
     <use xlink:href="#mef578b41da" x="541.792727" y="20.375075" style="fill: #1f77b4; stroke: #1f77b4"/>
    </g>
   </g>
   <g id="line2d_43">
    <path d="M 73.647273 209.947609 
L 94.926612 209.7945 
L 116.20595 209.489153 
L 137.485289 208.879475 
L 158.764628 207.657894 
L 180.043967 205.237311 
L 201.323306 200.398173 
L 222.602645 190.822342 
L 243.881983 172.628199 
L 265.161322 138.774592 
L 286.440661 95.435026 
L 307.72 54.839714 
L 328.999339 36.975381 
L 350.278678 21.059688 
L 371.558017 21.016177 
L 392.837355 20.996453 
L 414.116694 20.986784 
L 435.396033 20.982433 
L 456.675372 20.979967 
L 477.954711 20.979242 
L 499.23405 20.978807 
L 520.513388 20.978275 
L 541.792727 20.978178 
" clip-path="url(#p6a4af44c60)" style="fill: none; stroke-dasharray: 1.5,2.475; stroke-dashoffset: 0; stroke: #ff7f0e; stroke-width: 1.5"/>
    <defs>
     <path id="m15a68f1bf5" d="M 0 3 
C 0.795609 3 1.55874 2.683901 2.12132 2.12132 
C 2.683901 1.55874 3 0.795609 3 0 
C 3 -0.795609 2.683901 -1.55874 2.12132 -2.12132 
C 1.55874 -2.683901 0.795609 -3 0 -3 
C -0.795609 -3 -1.55874 -2.683901 -2.12132 -2.12132 
C -2.683901 -1.55874 -3 -0.795609 -3 0 
C -3 0.795609 -2.683901 1.55874 -2.12132 2.12132 
C -1.55874 2.683901 -0.795609 3 0 3 
z
" style="stroke: #ff7f0e"/>
    </defs>
    <g clip-path="url(#p6a4af44c60)">
     <use xlink:href="#m15a68f1bf5" x="73.647273" y="209.947609" style="fill: #ff7f0e; stroke: #ff7f0e"/>
     <use xlink:href="#m15a68f1bf5" x="94.926612" y="209.7945" style="fill: #ff7f0e; stroke: #ff7f0e"/>
     <use xlink:href="#m15a68f1bf5" x="116.20595" y="209.489153" style="fill: #ff7f0e; stroke: #ff7f0e"/>
     <use xlink:href="#m15a68f1bf5" x="137.485289" y="208.879475" style="fill: #ff7f0e; stroke: #ff7f0e"/>
     <use xlink:href="#m15a68f1bf5" x="158.764628" y="207.657894" style="fill: #ff7f0e; stroke: #ff7f0e"/>
     <use xlink:href="#m15a68f1bf5" x="180.043967" y="205.237311" style="fill: #ff7f0e; stroke: #ff7f0e"/>
     <use xlink:href="#m15a68f1bf5" x="201.323306" y="200.398173" style="fill: #ff7f0e; stroke: #ff7f0e"/>
     <use xlink:href="#m15a68f1bf5" x="222.602645" y="190.822342" style="fill: #ff7f0e; stroke: #ff7f0e"/>
     <use xlink:href="#m15a68f1bf5" x="243.881983" y="172.628199" style="fill: #ff7f0e; stroke: #ff7f0e"/>
     <use xlink:href="#m15a68f1bf5" x="265.161322" y="138.774592" style="fill: #ff7f0e; stroke: #ff7f0e"/>
     <use xlink:href="#m15a68f1bf5" x="286.440661" y="95.435026" style="fill: #ff7f0e; stroke: #ff7f0e"/>
     <use xlink:href="#m15a68f1bf5" x="307.72" y="54.839714" style="fill: #ff7f0e; stroke: #ff7f0e"/>
     <use xlink:href="#m15a68f1bf5" x="328.999339" y="36.975381" style="fill: #ff7f0e; stroke: #ff7f0e"/>
     <use xlink:href="#m15a68f1bf5" x="350.278678" y="21.059688" style="fill: #ff7f0e; stroke: #ff7f0e"/>
     <use xlink:href="#m15a68f1bf5" x="371.558017" y="21.016177" style="fill: #ff7f0e; stroke: #ff7f0e"/>
     <use xlink:href="#m15a68f1bf5" x="392.837355" y="20.996453" style="fill: #ff7f0e; stroke: #ff7f0e"/>
     <use xlink:href="#m15a68f1bf5" x="414.116694" y="20.986784" style="fill: #ff7f0e; stroke: #ff7f0e"/>
     <use xlink:href="#m15a68f1bf5" x="435.396033" y="20.982433" style="fill: #ff7f0e; stroke: #ff7f0e"/>
     <use xlink:href="#m15a68f1bf5" x="456.675372" y="20.979967" style="fill: #ff7f0e; stroke: #ff7f0e"/>
     <use xlink:href="#m15a68f1bf5" x="477.954711" y="20.979242" style="fill: #ff7f0e; stroke: #ff7f0e"/>
     <use xlink:href="#m15a68f1bf5" x="499.23405" y="20.978807" style="fill: #ff7f0e; stroke: #ff7f0e"/>
     <use xlink:href="#m15a68f1bf5" x="520.513388" y="20.978275" style="fill: #ff7f0e; stroke: #ff7f0e"/>
     <use xlink:href="#m15a68f1bf5" x="541.792727" y="20.978178" style="fill: #ff7f0e; stroke: #ff7f0e"/>
    </g>
   </g>
   <g id="line2d_44">
    <path d="M 50.24 16.720196 
L 565.2 16.720196 
" clip-path="url(#p6a4af44c60)" style="fill: none; stroke-dasharray: 1.5,2.475; stroke-dashoffset: 0; stroke: #1f77b4; stroke-width: 1.5"/>
   </g>
   <g id="patch_3">
    <path d="M 50.24 219.430828 
L 50.24 10.8 
" style="fill: none; stroke: #000000; stroke-width: 0.8; stroke-linejoin: miter; stroke-linecap: square"/>
   </g>
   <g id="patch_4">
    <path d="M 565.2 219.430828 
L 565.2 10.8 
" style="fill: none; stroke: #000000; stroke-width: 0.8; stroke-linejoin: miter; stroke-linecap: square"/>
   </g>
   <g id="patch_5">
    <path d="M 50.24 219.430828 
L 565.2 219.430828 
" style="fill: none; stroke: #000000; stroke-width: 0.8; stroke-linejoin: miter; stroke-linecap: square"/>
   </g>
   <g id="patch_6">
    <path d="M 50.24 10.8 
L 565.2 10.8 
" style="fill: none; stroke: #000000; stroke-width: 0.8; stroke-linejoin: miter; stroke-linecap: square"/>
   </g>
   <g id="legend_1">
    <g id="line2d_45">
     <path d="M 425.017187 176.258953 
L 435.017187 176.258953 
L 445.017187 176.258953 
" style="fill: none; stroke-dasharray: 1.5,2.475; stroke-dashoffset: 0; stroke: #1f77b4; stroke-width: 1.5"/>
     <g>
      <use xlink:href="#mef578b41da" x="435.017187" y="176.258953" style="fill: #1f77b4; stroke: #1f77b4"/>
     </g>
    </g>
    <g id="text_35">
     <!-- P-1QP-GDR-MAX-BW -->
     <g transform="translate(453.017187 179.758953) scale(0.1 -0.1)">
      <defs>
       <path id="Inter-Regular-50" d="M 563 0 
L 563 4656 
L 2156 4656 
Q 2700 4656 3051 4457 
Q 3403 4259 3573 3925 
Q 3744 3591 3744 3175 
Q 3744 2759 3573 2421 
Q 3403 2084 3053 1884 
Q 2703 1684 2159 1684 
L 1156 1684 
L 1156 0 
L 563 0 
z
M 1156 2206 
L 2131 2206 
Q 2684 2206 2918 2482 
Q 3153 2759 3153 3175 
Q 3153 3588 2918 3861 
Q 2684 4134 2125 4134 
L 1156 4134 
L 1156 2206 
z
" transform="scale(0.015625)"/>
       <path id="Inter-Regular-2d" d="M 2494 2247 
L 2494 1728 
L 450 1728 
L 450 2247 
L 2494 2247 
z
" transform="scale(0.015625)"/>
       <path id="Inter-Regular-51" d="M 2450 -63 
Q 1853 -63 1386 226 
Q 919 516 650 1052 
Q 381 1588 381 2325 
Q 381 3066 650 3602 
Q 919 4138 1386 4428 
Q 1853 4719 2450 4719 
Q 3047 4719 3512 4428 
Q 3978 4138 4245 3602 
Q 4513 3066 4513 2325 
Q 4513 1666 4295 1166 
Q 4078 666 3700 359 
L 4300 -438 
L 3681 -438 
L 3278 103 
Q 2897 -63 2450 -63 
z
M 2256 1456 
L 2875 1456 
L 3363 816 
Q 3625 1044 3779 1423 
Q 3934 1803 3934 2325 
Q 3934 2925 3736 3336 
Q 3538 3747 3202 3958 
Q 2866 4169 2450 4169 
Q 2031 4169 1693 3956 
Q 1356 3744 1157 3333 
Q 959 2922 959 2325 
Q 959 1731 1157 1322 
Q 1356 913 1693 700 
Q 2031 488 2450 488 
Q 2703 488 2931 566 
L 2256 1456 
z
" transform="scale(0.015625)"/>
       <path id="Inter-Regular-44" d="M 2016 0 
L 563 0 
L 563 4656 
L 2075 4656 
Q 2756 4656 3239 4378 
Q 3722 4100 3980 3579 
Q 4238 3059 4238 2338 
Q 4238 1609 3978 1086 
Q 3719 563 3222 281 
Q 2725 0 2016 0 
z
M 1156 525 
L 1978 525 
Q 2828 525 3245 1008 
Q 3663 1491 3663 2338 
Q 3663 3178 3253 3654 
Q 2844 4131 2034 4131 
L 1156 4131 
L 1156 525 
z
" transform="scale(0.015625)"/>
       <path id="Inter-Regular-52" d="M 563 0 
L 563 4656 
L 2156 4656 
Q 2700 4656 3051 4470 
Q 3403 4284 3573 3959 
Q 3744 3634 3744 3219 
Q 3744 2756 3533 2412 
Q 3322 2069 2881 1916 
L 3925 0 
L 3238 0 
L 2269 1809 
Q 2216 1806 2159 1806 
L 1156 1806 
L 1156 0 
L 563 0 
z
M 1156 2334 
L 2131 2334 
Q 2681 2334 2917 2571 
Q 3153 2809 3153 3219 
Q 3153 3634 2917 3884 
Q 2681 4134 2125 4134 
L 1156 4134 
L 1156 2334 
z
" transform="scale(0.015625)"/>
       <path id="Inter-Regular-41" d="M 163 0 
L 1853 4656 
L 2541 4656 
L 4253 0 
L 3628 0 
L 3163 1300 
L 1244 1300 
L 794 0 
L 163 0 
z
M 1425 1819 
L 2978 1819 
L 2641 2763 
Q 2556 2997 2450 3336 
Q 2344 3675 2194 4181 
Q 2047 3666 1937 3322 
Q 1828 2978 1753 2763 
L 1425 1819 
z
" transform="scale(0.015625)"/>
       <path id="Inter-Regular-58" d="M 178 0 
L 1847 2384 
L 281 4656 
L 969 4656 
L 1641 3669 
Q 1778 3469 1868 3328 
Q 1959 3188 2032 3058 
Q 2106 2928 2191 2766 
Q 2272 2928 2347 3058 
Q 2422 3188 2514 3328 
Q 2606 3469 2744 3669 
L 3428 4656 
L 4100 4656 
L 2534 2406 
L 4188 0 
L 3503 0 
L 2688 1181 
Q 2513 1438 2406 1605 
Q 2300 1772 2184 2000 
Q 2072 1778 1962 1608 
Q 1853 1438 1675 1181 
L 853 0 
L 178 0 
z
" transform="scale(0.015625)"/>
       <path id="Inter-Regular-57" d="M 1431 0 
L 163 4656 
L 769 4656 
L 1506 1800 
Q 1581 1500 1650 1190 
Q 1719 881 1781 553 
Q 1844 881 1912 1190 
Q 1981 1500 2063 1800 
L 2816 4656 
L 3491 4656 
L 4238 1800 
Q 4394 1216 4522 572 
Q 4581 894 4651 1198 
Q 4722 1503 4797 1800 
L 5531 4656 
L 6144 4656 
L 4869 0 
L 4178 0 
L 3378 2950 
Q 3319 3172 3261 3425 
Q 3203 3678 3150 3984 
Q 3097 3700 3044 3451 
Q 2991 3203 2922 2950 
L 2125 0 
L 1431 0 
z
" transform="scale(0.015625)"/>
      </defs>
      <use xlink:href="#Inter-Regular-50"/>
      <use xlink:href="#Inter-Regular-2d" transform="translate(63.867188 0)"/>
      <use xlink:href="#Inter-Regular-31" transform="translate(109.863281 0)"/>
      <use xlink:href="#Inter-Regular-51" transform="translate(150.537109 0)"/>
      <use xlink:href="#Inter-Regular-50" transform="translate(227.001953 0)"/>
      <use xlink:href="#Inter-Regular-2d" transform="translate(290.869141 0)"/>
      <use xlink:href="#Inter-Regular-47" transform="translate(336.865234 0)"/>
      <use xlink:href="#Inter-Regular-44" transform="translate(411.474609 0)"/>
      <use xlink:href="#Inter-Regular-52" transform="translate(483.642578 0)"/>
      <use xlink:href="#Inter-Regular-2d" transform="translate(547.998047 0)"/>
      <use xlink:href="#Inter-Regular-4d" transform="translate(593.994141 0)"/>
      <use xlink:href="#Inter-Regular-41" transform="translate(684.326172 0)"/>
      <use xlink:href="#Inter-Regular-58" transform="translate(753.320312 0)"/>
      <use xlink:href="#Inter-Regular-2d" transform="translate(821.533203 0)"/>
      <use xlink:href="#Inter-Regular-42" transform="translate(867.529297 0)"/>
      <use xlink:href="#Inter-Regular-57" transform="translate(932.958984 0)"/>
     </g>
    </g>
    <g id="line2d_46">
     <path d="M 425.017187 190.574578 
L 435.017187 190.574578 
L 445.017187 190.574578 
" style="fill: none; stroke-dasharray: 1.5,2.475; stroke-dashoffset: 0; stroke: #ff7f0e; stroke-width: 1.5"/>
     <g>
      <use xlink:href="#m15a68f1bf5" x="435.017187" y="190.574578" style="fill: #ff7f0e; stroke: #ff7f0e"/>
     </g>
    </g>
    <g id="text_36">
     <!-- S-1QP-GDR-MAX-BW -->
     <g transform="translate(453.017187 194.074578) scale(0.1 -0.1)">
      <defs>
       <path id="Inter-Regular-53" d="M 2053 -81 
Q 1297 -81 850 276 
Q 403 634 363 1219 
L 972 1219 
Q 997 956 1150 786 
Q 1303 616 1542 533 
Q 1781 450 2053 450 
Q 2369 450 2620 553 
Q 2872 656 3019 843 
Q 3166 1031 3166 1278 
Q 3166 1503 3039 1643 
Q 2913 1784 2703 1875 
Q 2494 1966 2244 2034 
L 1681 2194 
Q 1119 2353 806 2650 
Q 494 2947 494 3409 
Q 494 3803 706 4098 
Q 919 4394 1281 4556 
Q 1644 4719 2094 4719 
Q 2553 4719 2906 4556 
Q 3259 4394 3464 4114 
Q 3669 3834 3681 3481 
L 3100 3481 
Q 3059 3822 2775 4008 
Q 2491 4194 2075 4194 
Q 1622 4194 1347 3980 
Q 1072 3766 1072 3438 
Q 1072 3194 1223 3045 
Q 1375 2897 1583 2814 
Q 1791 2731 1959 2684 
L 2425 2556 
Q 2613 2506 2839 2418 
Q 3066 2331 3272 2186 
Q 3478 2041 3611 1817 
Q 3744 1594 3744 1269 
Q 3744 888 3545 581 
Q 3347 275 2969 97 
Q 2591 -81 2053 -81 
z
" transform="scale(0.015625)"/>
      </defs>
      <use xlink:href="#Inter-Regular-53"/>
      <use xlink:href="#Inter-Regular-2d" transform="translate(64.160156 0)"/>
      <use xlink:href="#Inter-Regular-31" transform="translate(110.15625 0)"/>
      <use xlink:href="#Inter-Regular-51" transform="translate(150.830078 0)"/>
      <use xlink:href="#Inter-Regular-50" transform="translate(227.294922 0)"/>
      <use xlink:href="#Inter-Regular-2d" transform="translate(291.162109 0)"/>
      <use xlink:href="#Inter-Regular-47" transform="translate(337.158203 0)"/>
      <use xlink:href="#Inter-Regular-44" transform="translate(411.767578 0)"/>
      <use xlink:href="#Inter-Regular-52" transform="translate(483.935547 0)"/>
      <use xlink:href="#Inter-Regular-2d" transform="translate(548.291016 0)"/>
      <use xlink:href="#Inter-Regular-4d" transform="translate(594.287109 0)"/>
      <use xlink:href="#Inter-Regular-41" transform="translate(684.619141 0)"/>
      <use xlink:href="#Inter-Regular-58" transform="translate(753.613281 0)"/>
      <use xlink:href="#Inter-Regular-2d" transform="translate(821.826172 0)"/>
      <use xlink:href="#Inter-Regular-42" transform="translate(867.822266 0)"/>
      <use xlink:href="#Inter-Regular-57" transform="translate(933.251953 0)"/>
     </g>
    </g>
    <g id="line2d_47">
     <path d="M 425.017187 204.890203 
L 435.017187 204.890203 
L 445.017187 204.890203 
" style="fill: none; stroke-dasharray: 1.5,2.475; stroke-dashoffset: 0; stroke: #1f77b4; stroke-width: 1.5"/>
    </g>
    <g id="text_37">
     <!-- 400 Gb/s line rate -->
     <g transform="translate(453.017187 208.390203) scale(0.1 -0.1)">
      <defs>
       <path id="Inter-Regular-6c" d="M 1056 4656 
L 1056 0 
L 494 0 
L 494 4656 
L 1056 4656 
z
" transform="scale(0.015625)"/>
       <path id="Inter-Regular-72" d="M 494 0 
L 494 3494 
L 1038 3494 
L 1038 2956 
L 1075 2956 
Q 1172 3222 1420 3383 
Q 1669 3544 1981 3544 
Q 2044 3544 2130 3541 
Q 2216 3538 2266 3534 
L 2266 2969 
Q 2241 2975 2141 2987 
Q 2041 3000 1928 3000 
Q 1550 3000 1303 2770 
Q 1056 2541 1056 2188 
L 1056 0 
L 494 0 
z
" transform="scale(0.015625)"/>
      </defs>
      <use xlink:href="#Inter-Regular-34"/>
      <use xlink:href="#Inter-Regular-30" transform="translate(64.599609 0)"/>
      <use xlink:href="#Inter-Regular-30" transform="translate(127.685547 0)"/>
      <use xlink:href="#Inter-Regular-20" transform="translate(190.771484 0)"/>
      <use xlink:href="#Inter-Regular-47" transform="translate(218.896484 0)"/>
      <use xlink:href="#Inter-Regular-62" transform="translate(293.505859 0)"/>
      <use xlink:href="#Inter-Regular-2f" transform="translate(354.736328 0)"/>
      <use xlink:href="#Inter-Regular-73" transform="translate(390.771484 0)"/>
      <use xlink:href="#Inter-Regular-20" transform="translate(443.554688 0)"/>
      <use xlink:href="#Inter-Regular-6c" transform="translate(471.679688 0)"/>
      <use xlink:href="#Inter-Regular-69" transform="translate(495.898438 0)"/>
      <use xlink:href="#Inter-Regular-6e" transform="translate(520.117188 0)"/>
      <use xlink:href="#Inter-Regular-65" transform="translate(579.199219 0)"/>
      <use xlink:href="#Inter-Regular-20" transform="translate(637.5 0)"/>
      <use xlink:href="#Inter-Regular-72" transform="translate(665.625 0)"/>
      <use xlink:href="#Inter-Regular-61" transform="translate(703.271484 0)"/>
      <use xlink:href="#Inter-Regular-74" transform="translate(759.423828 0)"/>
      <use xlink:href="#Inter-Regular-65" transform="translate(792.138672 0)"/>
     </g>
    </g>
   </g>
  </g>
 </g>
 <defs>
  <clipPath id="p6a4af44c60">
   <rect x="50.24" y="10.8" width="514.96" height="208.630828"/>
  </clipPath>
 </defs>
</svg>
